<?xml version="1.0" standalone="no"?>
<!DOCTYPE svg PUBLIC "-//W3C//DTD SVG 20010904//EN"
 "http://www.w3.org/TR/2001/REC-SVG-20010904/DTD/svg10.dtd">
<svg version="1.0" xmlns="http://www.w3.org/2000/svg"
 width="1063.000000pt" height="267.000000pt" viewBox="0 0 1063.000000 267.000000"
 preserveAspectRatio="xMidYMid meet">

<g transform="translate(0.000000,267.000000) scale(0.100000,-0.100000)"
fill="#000000" stroke="none">
<path d="M3800 2260 c-14 -5 -71 -23 -127 -40 -84 -25 -103 -34 -103 -50 0
-11 9 -24 20 -30 11 -6 20 -15 20 -21 0 -13 -451 -611 -498 -661 -20 -21 -46
-38 -57 -38 -32 0 -71 46 -335 398 -159 212 -255 332 -273 340 -38 18 -92 8
-123 -23 -18 -18 -24 -35 -24 -69 0 -42 11 -59 288 -427 326 -435 322 -431
457 -437 63 -3 76 -1 135 30 65 33 66 34 336 396 l271 362 27 -21 c54 -42 66
-9 66 184 l0 117 -27 -1 c-16 0 -39 -4 -53 -9z"/>
<path d="M4195 2181 c-33 -15 -69 -39 -81 -52 -11 -13 -140 -184 -285 -379
-261 -350 -264 -355 -264 -403 0 -42 4 -52 33 -78 36 -32 80 -38 121 -15 13 7
143 172 290 367 146 194 274 357 283 363 42 26 66 0 335 -359 144 -192 272
-358 284 -368 34 -27 93 -22 131 12 28 25 33 36 33 73 0 41 -13 61 -264 398
-145 195 -278 370 -295 389 -78 84 -210 106 -321 52z"/>
<path d="M6845 2190 c-28 -11 -67 -36 -87 -56 -38 -37 -530 -695 -554 -743
-20 -37 -17 -63 9 -102 27 -40 61 -54 111 -45 34 7 53 29 306 366 148 197 278
364 289 370 57 30 61 25 376 -397 132 -177 250 -326 263 -332 44 -21 82 -13
118 23 40 40 45 83 14 133 -38 63 -534 718 -564 745 -63 58 -186 74 -281 38z"/>
<path d="M4841 2164 c-26 -22 -31 -33 -31 -70 0 -31 6 -50 20 -64 19 -19 33
-20 360 -20 l340 0 0 -368 c0 -410 -1 -402 69 -423 30 -9 47 -9 76 1 63 21 65
32 65 435 l0 355 340 0 c327 0 341 1 360 20 32 32 27 94 -9 131 l-29 29 -765
0 -765 0 -31 -26z"/>
<path d="M8025 2141 c-76 -8 -134 -39 -168 -88 -56 -82 -57 -86 -57 -429 l0
-316 34 -34 c42 -42 91 -46 124 -11 21 22 22 33 22 182 l0 158 368 -6 c393 -7
462 -14 586 -61 109 -41 184 -93 287 -198 88 -90 99 -98 133 -98 52 0 106 52
106 102 0 38 -74 155 -127 199 -27 22 -28 27 -20 64 5 22 7 85 4 140 -8 180
-80 318 -189 365 -48 21 -75 24 -283 31 -267 9 -733 9 -820 0z m938 -215 c70
-25 104 -74 117 -169 6 -41 4 -47 -9 -42 -177 69 -253 78 -698 82 l-393 5 0
47 c0 34 6 53 20 69 l21 22 452 0 c355 -1 460 -4 490 -14z"/>
<path d="M1804 2110 c-33 -16 -69 -40 -80 -52 -32 -36 -529 -710 -543 -737
-30 -55 12 -135 76 -147 66 -13 78 0 344 355 138 185 263 348 277 364 37 39
72 36 113 -11 19 -20 143 -184 276 -363 177 -238 251 -330 273 -339 88 -37
183 59 140 141 -30 55 -543 730 -578 760 -80 68 -198 80 -298 29z"/>
<path d="M4255 1596 c-87 -38 -96 -179 -16 -233 52 -35 120 -32 165 8 122 107
0 290 -149 225z"/>
<path d="M6894 1596 c-51 -22 -74 -61 -74 -124 0 -50 3 -58 39 -93 34 -34 44
-39 85 -39 113 0 175 94 127 194 -34 68 -105 93 -177 62z"/>
<path d="M1874 1530 c-11 -4 -33 -22 -47 -40 -49 -58 -31 -172 33 -205 39 -20
105 -19 141 2 40 24 73 94 65 137 -16 86 -112 139 -192 106z"/>
<path d="M4017 1022 c-27 -29 -22 -62 8 -62 16 0 25 6 25 15 0 14 3 13 25 -1
35 -23 70 -12 84 27 6 18 11 34 11 35 0 2 -13 4 -30 4 -19 0 -30 -5 -30 -14 0
-13 -4 -13 -27 0 -36 18 -47 18 -66 -4z"/>
<path d="M1140 927 c-28 -14 -50 -51 -50 -85 0 -45 29 -81 88 -110 65 -32 88
-65 72 -106 -22 -59 -100 -56 -123 4 -11 30 -22 35 -51 24 -20 -8 -20 -25 0
-67 21 -44 61 -67 118 -67 38 0 52 6 82 33 30 28 37 42 41 83 6 62 -22 108
-90 145 -61 33 -79 51 -72 71 11 27 36 30 60 8 16 -15 29 -19 49 -14 30 7 30
5 14 39 -22 48 -87 68 -138 42z"/>
<path d="M1685 921 c-43 -19 -100 -78 -116 -118 -13 -36 -11 -119 5 -156 17
-39 81 -102 119 -116 40 -15 122 -14 160 3 39 17 102 81 116 119 15 39 14 122
-3 160 -19 46 -83 105 -125 117 -54 15 -111 12 -156 -9z m164 -70 c73 -52 88
-139 36 -206 -70 -93 -199 -77 -247 32 -18 40 -19 51 -8 87 13 45 67 102 102
109 36 8 91 -3 117 -22z"/>
<path d="M3375 922 c-22 -10 -54 -35 -72 -55 -89 -102 -61 -262 57 -324 45
-24 73 -63 46 -63 -8 0 -16 -9 -19 -19 -3 -14 2 -20 19 -24 39 -7 69 14 69 51
0 25 4 32 20 32 23 0 125 56 125 69 0 5 -11 16 -25 25 -24 16 -27 15 -56 -6
-40 -30 -117 -31 -156 -2 -99 74 -90 199 17 254 51 26 76 25 128 -5 41 -23 45
-24 68 -9 13 9 24 20 24 25 0 4 -20 20 -45 35 -61 35 -145 42 -200 16z"/>
<path d="M4005 928 c-51 -18 -80 -44 -109 -98 -71 -131 10 -294 154 -308 77
-7 117 5 167 51 53 49 73 89 73 149 0 68 -17 113 -60 155 -57 58 -148 78 -225
51z m122 -59 c40 -15 81 -57 94 -96 32 -99 -64 -208 -167 -188 -48 9 -101 58
-114 106 -31 113 80 219 187 178z"/>
<path d="M5098 925 c-15 -9 -31 -30 -38 -50 -20 -60 4 -101 80 -140 25 -13 53
-32 63 -43 26 -28 18 -70 -16 -96 -26 -19 -30 -19 -55 -5 -15 8 -33 27 -40 43
-12 23 -18 27 -40 21 -37 -9 -37 -10 -16 -56 22 -50 65 -79 117 -79 79 0 127
50 127 131 0 59 -32 103 -100 136 -44 22 -55 33 -55 52 0 13 8 29 18 35 15 9
22 7 37 -12 14 -17 25 -21 44 -16 35 8 33 36 -5 68 -35 29 -79 33 -121 11z"/>
<path d="M6905 925 c-80 -28 -146 -141 -130 -221 3 -13 7 -35 10 -49 7 -35 61
-92 108 -117 54 -27 147 -22 200 11 l37 23 0 79 0 79 -30 0 c-30 0 -30 0 -30
-59 0 -35 -5 -63 -12 -69 -26 -21 -83 -24 -126 -7 -137 55 -113 251 35 281 28
6 77 -10 115 -38 15 -11 21 -9 40 10 l23 23 -29 23 c-55 45 -137 57 -211 31z"/>
<path d="M9139 911 c-23 -24 -29 -38 -29 -73 0 -51 16 -69 98 -113 35 -19 55
-37 59 -53 16 -66 -43 -113 -95 -75 -15 11 -28 30 -30 42 -5 34 -62 24 -62
-11 0 -65 64 -113 142 -106 85 9 134 84 110 166 -14 46 -32 64 -103 100 -43
21 -54 32 -54 51 0 13 8 29 18 35 15 9 22 7 37 -12 14 -17 25 -21 44 -16 41
10 29 56 -21 82 -39 21 -82 14 -114 -17z"/>
<path d="M2250 725 l0 -205 105 0 105 0 0 35 0 35 -75 0 -75 0 0 170 0 170
-30 0 -30 0 0 -205z"/>
<path d="M2700 780 c0 -162 5 -183 55 -230 36 -34 129 -36 172 -4 54 39 63 74
63 237 l0 147 -35 0 -35 0 0 -144 c0 -79 -3 -152 -6 -161 -10 -24 -60 -46 -89
-39 -14 3 -34 18 -45 31 -18 23 -20 41 -20 169 l0 144 -30 0 -30 0 0 -150z"/>
<path d="M4550 725 l0 -205 115 0 115 0 0 35 0 35 -80 0 -80 0 0 55 0 55 80 0
80 0 0 30 0 30 -80 0 -80 0 0 55 0 55 80 0 80 0 0 30 0 30 -115 0 -115 0 0
-205z"/>
<path d="M5910 726 l0 -206 43 0 c63 0 113 17 153 52 50 44 67 83 68 154 0 73
-24 125 -78 168 -33 27 -47 31 -112 34 l-74 4 0 -206z m137 124 c18 -10 40
-34 49 -52 34 -66 12 -151 -49 -188 -65 -40 -67 -36 -67 120 0 156 2 160 67
120z"/>
<path d="M6440 725 l0 -205 35 0 35 0 0 205 0 205 -35 0 -35 0 0 -205z"/>
<path d="M7410 725 l0 -205 35 0 35 0 0 205 0 205 -35 0 -35 0 0 -205z"/>
<path d="M7730 900 c0 -29 2 -30 45 -30 l45 0 0 -175 0 -175 30 0 30 0 0 175
0 175 45 0 c43 0 45 1 45 30 l0 30 -120 0 -120 0 0 -30z"/>
<path d="M8251 731 c-39 -109 -71 -201 -71 -205 0 -3 15 -6 33 -6 32 0 34 2
56 70 l22 70 53 0 53 0 24 -70 c23 -68 24 -70 57 -70 23 0 33 4 30 13 -3 6
-36 99 -74 204 -92 258 -88 258 -183 -6z m97 1 c-28 -5 -31 1 -16 33 l12 28
12 -29 c11 -26 10 -29 -8 -32z"/>
<path d="M8760 725 l0 -205 30 0 30 0 0 205 0 205 -30 0 -30 0 0 -205z"/>
</g>
</svg>
