<?xml version="1.0" encoding="UTF-8"?>
<!DOCTYPE svg PUBLIC "-//W3C//DTD SVG 1.1//EN" "http://www.w3.org/Graphics/SVG/1.1/DTD/svg11.dtd">
<svg xmlns="http://www.w3.org/2000/svg" xml:space="preserve" width="255px" height="64px" version="1.1" style="shape-rendering:geometricPrecision; text-rendering:geometricPrecision; image-rendering:optimizeQuality; fill-rule:evenodd; clip-rule:evenodd"
viewBox="0 0 23.18 5.83"
 xmlns:xlink="http://www.w3.org/1999/xlink">
 <defs>
  <style type="text/css">
   <![CDATA[
    .fil0 {fill:white}
   ]]>
  </style>
 </defs>
 <g id="Camada_x0020_1">
  <path class="fil0" d="M2.94 3.18c-0.05,0.05 -0.1,0.08 -0.17,0.08 -0.06,0 -0.12,-0.02 -0.16,-0.06 -0.04,-0.05 -0.06,-0.1 -0.06,-0.16 0,-0.06 0.01,-0.1 0.04,-0.13l1.12 -1.51c0.05,-0.07 0.12,-0.12 0.21,-0.17 0.08,-0.04 0.17,-0.07 0.27,-0.07 0.09,0 0.18,0.02 0.26,0.06 0.09,0.04 0.15,0.1 0.21,0.17l1.11 1.49c0.02,0.02 0.04,0.05 0.05,0.07 0.01,0.03 0.02,0.06 0.02,0.09 0,0.06 -0.02,0.11 -0.07,0.16 -0.04,0.04 -0.09,0.06 -0.15,0.06 -0.08,0 -0.13,-0.03 -0.18,-0.09l-1.07 -1.43c-0.02,-0.02 -0.05,-0.05 -0.08,-0.08 -0.03,-0.03 -0.06,-0.04 -0.1,-0.04 -0.03,0 -0.06,0.01 -0.1,0.04 -0.03,0.03 -0.05,0.06 -0.07,0.08l-1.08 1.44zm0.97 -0.42l0 0c0,0.08 0.03,0.15 0.08,0.21 0.06,0.05 0.12,0.08 0.2,0.08 0.08,0 0.15,-0.03 0.2,-0.08 0.06,-0.06 0.09,-0.13 0.09,-0.21 0,-0.08 -0.03,-0.14 -0.09,-0.2 -0.05,-0.05 -0.12,-0.08 -0.2,-0.08 -0.08,0 -0.14,0.03 -0.2,0.08 -0.05,0.06 -0.08,0.12 -0.08,0.2zm4.25 0.27l0 0c-0.05,0.05 -0.11,0.08 -0.17,0.08 -0.06,0 -0.12,-0.02 -0.16,-0.07 -0.04,-0.04 -0.06,-0.09 -0.06,-0.15 0,-0.06 0.01,-0.1 0.04,-0.14l1.12 -1.5c0.05,-0.07 0.12,-0.13 0.21,-0.17 0.08,-0.04 0.17,-0.07 0.27,-0.07 0.09,0 0.18,0.02 0.26,0.06 0.09,0.04 0.15,0.1 0.21,0.17l1.11 1.49c0.02,0.02 0.04,0.05 0.05,0.07 0.01,0.03 0.02,0.06 0.02,0.09 0,0.06 -0.02,0.11 -0.07,0.15 -0.04,0.05 -0.09,0.07 -0.15,0.07 -0.08,0 -0.14,-0.03 -0.18,-0.09l-1.07 -1.43c-0.02,-0.02 -0.05,-0.05 -0.08,-0.08 -0.03,-0.03 -0.06,-0.04 -0.1,-0.04 -0.03,0 -0.06,0.01 -0.1,0.04 -0.03,0.03 -0.05,0.06 -0.07,0.08l-1.08 1.44zm0.97 -0.42l0 0c0,0.08 0.02,0.15 0.08,0.2 0.05,0.06 0.12,0.09 0.2,0.09 0.08,0 0.15,-0.03 0.2,-0.09 0.06,-0.05 0.09,-0.12 0.09,-0.2 0,-0.08 -0.03,-0.14 -0.09,-0.2 -0.05,-0.06 -0.12,-0.08 -0.2,-0.08 -0.08,0 -0.15,0.02 -0.2,0.08 -0.06,0.06 -0.08,0.12 -0.08,0.2zm4.96 -1.34l0 0c0,-0.06 -0.02,-0.1 -0.06,-0.15 -0.05,-0.04 -0.1,-0.07 -0.16,-0.07l-3.16 0c-0.06,0 -0.11,0.02 -0.16,0.07 -0.04,0.04 -0.06,0.08 -0.06,0.14 0,0.1 0.06,0.17 0.16,0.17l1.42 0 0 1.55c0,0.11 0.11,0.19 0.22,0.19 0.06,0 0.11,-0.02 0.16,-0.06 0.04,-0.04 0.05,-0.1 0.05,-0.16l0 -1.52 1.44 0c0.09,0 0.15,-0.07 0.15,-0.16zm-0.18 1.76l0 0c-0.04,0.05 -0.1,0.08 -0.17,0.08 -0.06,0 -0.11,-0.02 -0.15,-0.07 -0.05,-0.04 -0.07,-0.09 -0.07,-0.15 0,-0.06 0.02,-0.1 0.05,-0.14l1.11 -1.5c0.06,-0.07 0.13,-0.13 0.21,-0.17 0.09,-0.04 0.18,-0.07 0.28,-0.07 0.09,0 0.18,0.02 0.26,0.06 0.08,0.04 0.15,0.1 0.2,0.17l1.12 1.49c0.02,0.02 0.03,0.05 0.04,0.07 0.02,0.03 0.02,0.06 0.02,0.09 0,0.06 -0.02,0.11 -0.06,0.15 -0.05,0.05 -0.1,0.07 -0.16,0.07 -0.07,0 -0.13,-0.03 -0.17,-0.09l-1.07 -1.43c-0.03,-0.02 -0.05,-0.05 -0.08,-0.08 -0.04,-0.03 -0.07,-0.04 -0.1,-0.04 -0.04,0 -0.07,0.01 -0.1,0.04 -0.03,0.03 -0.06,0.06 -0.08,0.08l-1.08 1.44zm0.97 -0.42l0 0c0,0.08 0.03,0.15 0.08,0.2 0.06,0.06 0.13,0.09 0.21,0.09 0.08,0 0.14,-0.03 0.2,-0.09 0.05,-0.05 0.08,-0.12 0.08,-0.2 0,-0.08 -0.03,-0.14 -0.08,-0.2 -0.06,-0.06 -0.12,-0.08 -0.2,-0.08 -0.08,0 -0.15,0.02 -0.21,0.08 -0.05,0.06 -0.08,0.12 -0.08,0.2zm5.71 0.15l0 0c0,0 0,0 -0.01,-0.01 -0.08,-0.13 -0.18,-0.24 -0.29,-0.33 0.03,-0.11 0.05,-0.22 0.05,-0.33 0,-0.06 -0.01,-0.12 -0.02,-0.17 -0.01,-0.08 -0.02,-0.15 -0.05,-0.22 -0.17,-0.54 -0.46,-0.53 -0.96,-0.54 -0.44,0 -1.8,-0.03 -1.91,0.02 -0.06,0.03 -0.12,0.05 -0.18,0.1 -0.04,0.05 -0.08,0.09 -0.11,0.14 -0.01,0.02 -0.02,0.03 -0.02,0.04 -0.04,0.08 -0.06,0.16 -0.06,0.25l0 1.18c0,0.06 0.03,0.11 0.07,0.15 0.04,0.05 0.1,0.07 0.16,0.07 0.06,0 0.07,-0.02 0.12,-0.07 0.04,-0.04 0.02,-0.09 0.02,-0.15l0 -0.56 1.02 0c0.19,0 0.36,0.01 0.53,0.02 0.16,0.01 0.32,0.03 0.47,0.08 0.09,0.03 0.18,0.07 0.27,0.11 0.05,0.03 0.1,0.06 0.15,0.09 0.03,0.02 0.07,0.05 0.11,0.08 0.04,0.04 0.09,0.08 0.14,0.13 0.04,0.05 0.09,0.1 0.13,0.16 0.01,0.01 0.03,0.03 0.05,0.04 0.01,0.01 0.02,0.02 0.03,0.03 0.01,0.01 0.02,0.01 0.03,0.02 0.03,0.01 0.06,0.02 0.09,0.02 0.06,0 0.11,-0.02 0.15,-0.07 0.05,-0.04 0.07,-0.09 0.07,-0.15 0,-0.05 -0.02,-0.09 -0.05,-0.13zm-0.85 -0.68l0 0c-0.17,-0.07 -0.37,-0.11 -0.59,-0.14 -0.21,-0.03 -0.46,-0.03 -0.73,-0.03l-1.02 0c0,-0.11 0,-0.1 0,-0.14 0,-0.02 0,-0.05 0,-0.07 0,-0.03 0.04,-0.05 0.05,-0.08 0.01,-0.02 0.06,-0.03 0.07,-0.03l0.4 0 1.39 0 0.13 0c0.14,0 0.25,0.05 0.32,0.17 0.02,0.03 0.03,0.06 0.04,0.09 0.01,0.02 0.01,0.03 0.02,0.05 0.01,0.07 0.02,0.13 0.02,0.19 0,0.01 0,0.02 0,0.03 -0.03,-0.01 -0.06,-0.03 -0.1,-0.04zm-11.31 -1.19l0 0c-0.02,-0.01 -0.03,-0.02 -0.05,-0.01l-0.56 0.17c-0.01,0 -0.03,0.02 -0.03,0.03 0,0.02 0,0.04 0.02,0.05l0.09 0.07 -1.07 1.42c-0.02,0.03 -0.05,0.05 -0.08,0.08 -0.03,0.03 -0.07,0.05 -0.1,0.05 -0.03,0 -0.07,-0.02 -0.1,-0.05 -0.03,-0.03 -0.06,-0.05 -0.08,-0.08l-1.07 -1.43c-0.04,-0.06 -0.1,-0.08 -0.17,-0.08 -0.06,0 -0.12,0.02 -0.16,0.06 -0.04,0.04 -0.06,0.09 -0.06,0.16 0,0.03 0,0.05 0.01,0.08 0.02,0.03 0.03,0.05 0.05,0.07l1.12 1.5c0.05,0.07 0.12,0.12 0.2,0.16 0.08,0.04 0.17,0.06 0.26,0.06 0.1,0 0.19,-0.02 0.27,-0.07 0.09,-0.04 0.16,-0.1 0.21,-0.17l1.12 -1.5 0.1 0.09c0.02,0.01 0.04,0.01 0.05,0 0.01,0 0.02,-0.01 0.02,-0.01 0.01,-0.01 0.01,-0.02 0.01,-0.03l0.02 -0.59c0,-0.01 -0.01,-0.02 -0.02,-0.03zm-5.85 3.34c-0.07,-0.03 -0.12,-0.05 -0.15,-0.09 -0.04,-0.04 -0.06,-0.09 -0.06,-0.15 0,-0.05 0.02,-0.1 0.06,-0.14 0.04,-0.04 0.09,-0.06 0.14,-0.06 0.06,0 0.11,0.02 0.15,0.06 0.02,0.02 0.04,0.05 0.06,0.1l-0.11 0.04c-0.01,-0.03 -0.02,-0.05 -0.03,-0.06 -0.02,-0.02 -0.04,-0.03 -0.07,-0.03 -0.02,0 -0.04,0.01 -0.06,0.03 -0.02,0.02 -0.03,0.04 -0.03,0.06 0,0.03 0.01,0.05 0.03,0.07 0.02,0.02 0.05,0.04 0.08,0.05 0.07,0.02 0.13,0.06 0.18,0.11 0.05,0.05 0.08,0.12 0.08,0.19 0,0.08 -0.03,0.14 -0.08,0.2 -0.06,0.05 -0.12,0.08 -0.2,0.08 -0.07,0 -0.14,-0.03 -0.19,-0.08 -0.04,-0.05 -0.07,-0.11 -0.08,-0.18l0.11 -0.04c0.01,0.06 0.02,0.11 0.05,0.14 0.03,0.03 0.07,0.04 0.11,0.04 0.05,0 0.09,-0.01 0.12,-0.04 0.03,-0.04 0.04,-0.07 0.04,-0.12 0,-0.04 -0.01,-0.08 -0.04,-0.11 -0.03,-0.03 -0.07,-0.06 -0.11,-0.07zm1.58 -0.31c0.09,0.09 0.14,0.19 0.14,0.32 0,0.12 -0.05,0.23 -0.14,0.31 -0.08,0.09 -0.19,0.14 -0.31,0.14 -0.13,0 -0.24,-0.05 -0.32,-0.14 -0.09,-0.08 -0.14,-0.19 -0.14,-0.31 0,-0.13 0.05,-0.23 0.14,-0.32 0.08,-0.09 0.19,-0.13 0.32,-0.13 0.12,0 0.23,0.04 0.31,0.13zm-0.55 0.08c-0.13,0.13 -0.13,0.34 0,0.47 0.13,0.13 0.34,0.14 0.47,0 0.13,-0.13 0.13,-0.34 0,-0.47 -0.13,-0.13 -0.34,-0.13 -0.47,0zm1.29 0.68l0 -0.88 0.11 0 0 0.76 0.32 0 0 0.12 -0.43 0zm1.47 -0.88l0.12 0 0 0.62c-0.01,0.07 -0.04,0.13 -0.09,0.18 -0.06,0.05 -0.13,0.08 -0.21,0.08 -0.09,0 -0.16,-0.02 -0.21,-0.08 -0.06,-0.06 -0.09,-0.13 -0.09,-0.21l0 -0.59 0.11 0 0 0.59c0,0.05 0.02,0.09 0.06,0.13 0.03,0.03 0.08,0.05 0.13,0.05 0.05,0 0.09,-0.02 0.13,-0.05 0.03,-0.04 0.05,-0.08 0.05,-0.13l0 -0.59zm1.08 0.88c-0.09,-0.02 -0.16,-0.06 -0.23,-0.12 -0.09,-0.09 -0.13,-0.2 -0.13,-0.32 0,-0.13 0.04,-0.23 0.13,-0.32 0.09,-0.09 0.19,-0.13 0.32,-0.13 0.11,0 0.22,0.05 0.33,0.14l-0.09 0.08c-0.08,-0.07 -0.16,-0.11 -0.24,-0.11 -0.09,0 -0.17,0.04 -0.24,0.1 -0.06,0.07 -0.1,0.14 -0.1,0.24 0,0.09 0.04,0.17 0.1,0.23 0.07,0.07 0.15,0.1 0.24,0.1 0.08,0 0.16,-0.03 0.24,-0.1l0.09 0.07c-0.11,0.1 -0.22,0.15 -0.33,0.15l-0.01 0 -0.01 0.01c0.03,0.02 0.05,0.03 0.05,0.05 0,0.01 0.01,0.01 0.01,0.02 0,0 0,0 0,0.01 0,0.02 -0.01,0.03 -0.02,0.04 -0.02,0.03 -0.04,0.04 -0.08,0.04 0,0.01 -0.01,0.01 -0.02,0.01 -0.02,0 -0.05,-0.01 -0.08,-0.01l0.02 -0.07c0.02,0.01 0.03,0.01 0.05,0.01 0,0 0,0 0,0 0.01,0 0.02,-0.01 0.03,-0.02 0,0 0,0 0,-0.01 0,0 0,0 0,0 -0.01,-0.01 -0.02,-0.02 -0.05,-0.03l0.02 -0.06zm1.76 -0.76c0.09,0.09 0.13,0.19 0.13,0.32 0,0.12 -0.04,0.23 -0.13,0.31 -0.09,0.09 -0.19,0.14 -0.32,0.14 -0.12,0 -0.23,-0.05 -0.32,-0.14 -0.08,-0.08 -0.13,-0.19 -0.13,-0.31 0,-0.13 0.05,-0.23 0.13,-0.32 0.09,-0.09 0.2,-0.13 0.32,-0.13 0.13,0 0.23,0.04 0.32,0.13zm-0.32 -0.02l0 0c-0.09,0 -0.17,0.03 -0.24,0.1 -0.06,0.06 -0.09,0.14 -0.09,0.24 0,0.09 0.03,0.17 0.09,0.23 0.07,0.07 0.15,0.1 0.24,0.1 0.09,0 0.17,-0.03 0.24,-0.1 0.06,-0.06 0.1,-0.14 0.1,-0.23 0,-0.1 -0.04,-0.18 -0.1,-0.24 -0.07,-0.07 -0.15,-0.1 -0.24,-0.1zm0.02 -0.29l0 0c0.02,0.02 0.03,0.03 0.04,0.03l0 0c0.01,0 0.02,-0.01 0.02,-0.02 0,-0.01 0,-0.02 -0.01,-0.04l0.11 0c-0.02,0.08 -0.05,0.13 -0.09,0.14 -0.01,0 -0.02,0 -0.03,0 -0.02,0 -0.05,-0.01 -0.07,-0.03 -0.02,-0.02 -0.04,-0.03 -0.05,-0.03l0 0c-0.01,0 -0.02,0.01 -0.02,0.02 0,0.01 0.01,0.02 0.01,0.04l-0.1 0c0.01,-0.08 0.04,-0.13 0.08,-0.14 0.01,0 0.02,0 0.03,0 0.03,0 0.05,0.01 0.08,0.03zm1.51 0.19l0 0.11 -0.36 0 0 0.27 0.36 0 0 0.11 -0.36 0 0 0.27 0.36 0 0 0.12 -0.48 0 0 -0.88 0.48 0zm0.82 0.43c-0.06,-0.03 -0.11,-0.05 -0.15,-0.09 -0.04,-0.04 -0.06,-0.09 -0.06,-0.15 0,-0.05 0.02,-0.1 0.06,-0.14 0.04,-0.04 0.09,-0.06 0.15,-0.06 0.06,0 0.1,0.02 0.14,0.06 0.03,0.02 0.05,0.05 0.06,0.1l-0.1 0.04c-0.01,-0.03 -0.03,-0.05 -0.04,-0.06 -0.01,-0.02 -0.03,-0.03 -0.06,-0.03 -0.03,0 -0.05,0.01 -0.07,0.03 -0.01,0.02 -0.02,0.04 -0.02,0.06 0,0.03 0.01,0.05 0.02,0.07 0.02,0.02 0.05,0.04 0.09,0.05 0.07,0.02 0.13,0.06 0.17,0.11 0.06,0.05 0.08,0.12 0.08,0.19 0,0.08 -0.02,0.14 -0.08,0.2 -0.05,0.05 -0.11,0.08 -0.19,0.08 -0.08,0 -0.14,-0.03 -0.19,-0.08 -0.05,-0.05 -0.07,-0.11 -0.09,-0.18l0.11 -0.04c0.01,0.06 0.03,0.11 0.06,0.14 0.03,0.03 0.07,0.04 0.11,0.04 0.04,0 0.08,-0.01 0.11,-0.04 0.04,-0.04 0.05,-0.07 0.05,-0.12 0,-0.04 -0.01,-0.08 -0.05,-0.11 -0.03,-0.03 -0.06,-0.06 -0.11,-0.07zm1.76 -0.43c0.14,0 0.25,0.04 0.33,0.12 0.09,0.09 0.13,0.19 0.13,0.32 0,0.12 -0.04,0.23 -0.13,0.32 -0.08,0.08 -0.19,0.12 -0.33,0.12l-0.09 0 0 -0.88 0.09 0zm0.03 0.11l0 0 0 0.65c0.09,0 0.16,-0.03 0.22,-0.09 0.07,-0.06 0.1,-0.14 0.1,-0.23 0,-0.1 -0.03,-0.17 -0.1,-0.24 -0.06,-0.06 -0.13,-0.09 -0.22,-0.09zm1.15 -0.11l0 0.88 -0.12 0 0 -0.88 0.12 0zm1.37 0.76c-0.09,0.08 -0.19,0.13 -0.31,0.13 -0.12,0 -0.23,-0.05 -0.32,-0.13 -0.09,-0.09 -0.13,-0.2 -0.13,-0.32 0,-0.13 0.04,-0.23 0.13,-0.32 0.09,-0.09 0.2,-0.13 0.32,-0.13 0.12,0 0.23,0.05 0.33,0.14l-0.09 0.08c-0.07,-0.07 -0.16,-0.11 -0.24,-0.11 -0.09,0 -0.17,0.04 -0.24,0.1 -0.06,0.07 -0.09,0.14 -0.09,0.24 0,0.09 0.03,0.17 0.09,0.23 0.07,0.07 0.15,0.1 0.24,0.1 0.08,0 0.14,-0.02 0.2,-0.06l0 -0.27 0.11 0 0 0.32zm0.75 -0.76l0 0.88 -0.12 0 0 -0.88 0.12 0zm0.89 0.11l0 0.77 -0.12 0 0 -0.77 -0.2 0 0 -0.11 0.52 0 0 0.11 -0.2 0zm1.05 -0.11l0.32 0.88 -0.12 0 -0.11 -0.31 -0.24 0 -0.11 0.31 -0.12 0 0.32 -0.88 0.06 0zm0.04 0.45l0 0 -0.07 -0.2 -0.08 0.2 0.15 0zm0.96 -0.45l0 0.88 -0.11 0 0 -0.88 0.11 0zm0.85 0.43c-0.06,-0.03 -0.11,-0.05 -0.15,-0.09 -0.04,-0.04 -0.05,-0.09 -0.05,-0.15 0,-0.05 0.02,-0.1 0.06,-0.14 0.04,-0.04 0.08,-0.06 0.14,-0.06 0.06,0 0.11,0.02 0.15,0.06 0.02,0.02 0.04,0.05 0.05,0.1l-0.1 0.04c-0.01,-0.03 -0.02,-0.05 -0.03,-0.06 -0.02,-0.02 -0.04,-0.03 -0.07,-0.03 -0.02,0 -0.05,0.01 -0.06,0.03 -0.02,0.02 -0.03,0.04 -0.03,0.06 0,0.03 0.01,0.05 0.03,0.07 0.02,0.02 0.04,0.04 0.08,0.05 0.07,0.02 0.13,0.06 0.18,0.11 0.05,0.05 0.08,0.12 0.08,0.19 0,0.08 -0.03,0.14 -0.08,0.2 -0.06,0.05 -0.12,0.08 -0.2,0.08 -0.07,0 -0.14,-0.03 -0.19,-0.08 -0.05,-0.05 -0.07,-0.11 -0.08,-0.18l0.11 -0.04c0,0.06 0.02,0.11 0.05,0.14 0.03,0.03 0.07,0.04 0.11,0.04 0.05,0 0.08,-0.01 0.12,-0.04 0.03,-0.04 0.04,-0.07 0.04,-0.12 0,-0.04 -0.01,-0.08 -0.04,-0.11 -0.03,-0.03 -0.07,-0.06 -0.12,-0.07zm3.09 1.6l-23.18 0 0 -5.83 23.18 0 0 5.83zm-23.09 -0.09l0 0 23 0 0 -5.65 -23 0 0 5.65z"/>
 </g>
</svg>
